<?xml version="1.0" encoding="utf-8"?>
<!-- Generator: Adobe Illustrator 16.0.0, SVG Export Plug-In . SVG Version: 6.00 Build 0)  -->
<!DOCTYPE svg PUBLIC "-//W3C//DTD SVG 1.1//EN" "http://www.w3.org/Graphics/SVG/1.1/DTD/svg11.dtd">
<svg version="1.1" id="Слой_1" xmlns="http://www.w3.org/2000/svg" xmlns:xlink="http://www.w3.org/1999/xlink" x="0px" y="0px"
	 width="22px" height="22px" viewBox="0 0 22 22" enable-background="new 0 0 22 22" xml:space="preserve">
<path fill="#FFFFFF" d="M-265,17h18v-2h-18V17z M-265,12h18v-2h-18V12z M-265,7h18V5h-18V7z"/>
<path fill="#FFFFFF" d="M6,18H4v-2h2V18z M6,6H4V4h2V6z M18,6h-2V4h2V6z M2,19.984h6V14H2V19.984z M2,8h6V2H2V8z M14,8h6V2h-6V8z
	 M10,22H0V12h10V22z M18,22h-2v-2h2V22z M22,22h-2v-2h2V22z M22,12v6h-6v-2h-2v6h-2V12h6v2h2v-2H22z M10,10H0V0h10V10z M22,10H12V0
	h10V10z"/>
</svg>
