<?xml version="1.0" encoding="utf-8"?>
<!-- Generator: Adobe Illustrator 16.0.0, SVG Export Plug-In . SVG Version: 6.00 Build 0)  -->
<!DOCTYPE svg PUBLIC "-//W3C//DTD SVG 1.1//EN" "http://www.w3.org/Graphics/SVG/1.1/DTD/svg11.dtd">
<svg version="1.1" id="Слой_1" xmlns="http://www.w3.org/2000/svg" xmlns:xlink="http://www.w3.org/1999/xlink" x="0px" y="0px"
	 width="28px" height="26px" viewBox="0 0 28 26" enable-background="new 0 0 28 26" xml:space="preserve">
<g enable-background="new    ">
	<g>
		<defs>
			<rect id="SVGID_1_" width="28" height="26"/>
		</defs>
		<clipPath id="SVGID_2_">
			<use xlink:href="#SVGID_1_"  overflow="visible"/>
		</clipPath>
		<g clip-path="url(#SVGID_2_)">
			<defs>
				<rect id="SVGID_3_" y="-1" width="28" height="28"/>
			</defs>
			<clipPath id="SVGID_4_">
				<use xlink:href="#SVGID_3_"  overflow="visible"/>
			</clipPath>
			<g clip-path="url(#SVGID_4_)">
				<defs>
					<rect id="SVGID_5_" y="-1" width="28" height="28"/>
				</defs>
				<clipPath id="SVGID_6_">
					<use xlink:href="#SVGID_5_"  overflow="visible"/>
				</clipPath>
				<path clip-path="url(#SVGID_6_)" fill="#E6C96C" d="M25.651,11.399l-3.53-10.589L0.067,8.198l4.675,14.06v3.063H28V11.399
					H25.651z M4.742,15.624c-0.42-1.254-0.839-2.507-1.259-3.76c1.617-0.541,2.489-2.292,1.947-3.909
					c4.078-1.365,8.155-2.731,12.233-4.098c0.541,1.618,2.291,2.489,3.909,1.948c0.581,1.735,1.163,3.473,1.745,5.208
					c-0.278,0.094-0.53,0.22-0.771,0.386h-5.588c-0.021-1.949-1.608-3.519-3.558-3.519c-1.95,0-3.537,1.569-3.56,3.519h-5.1V15.624z
					 M25.91,20.915c-1.706,0-3.088,1.287-3.088,2.874H9.921c0-1.587-1.383-2.874-3.088-2.874v-5.111
					c1.705,0,3.088-1.286,3.088-2.873h12.901c0,1.587,1.382,2.873,3.088,2.873V20.915z"/>
				<path clip-path="url(#SVGID_6_)" fill="#E6C96C" d="M19.412,10.188c0.458,0.11,0.918-0.174,1.027-0.631
					c0.109-0.459-0.174-0.919-0.632-1.028C19.35,8.421,18.89,8.703,18.78,9.162C18.672,9.62,18.954,10.08,19.412,10.188"/>
				<path clip-path="url(#SVGID_6_)" fill="#E6C96C" d="M14.489,15.34c-1.668,1.039-2.178,3.233-1.139,4.901
					c1.04,1.668,3.234,2.178,4.902,1.139s2.178-3.233,1.139-4.901S16.158,14.3,14.489,15.34"/>
				<path clip-path="url(#SVGID_6_)" fill="#E6C96C" d="M9.372,17.636c-0.4,0.249-0.521,0.775-0.273,1.175
					c0.249,0.4,0.775,0.522,1.175,0.273s0.522-0.775,0.272-1.175C10.297,17.509,9.771,17.387,9.372,17.636"/>
				<path clip-path="url(#SVGID_6_)" fill="#E6C96C" d="M23.37,17.636c-0.399-0.249-0.925-0.127-1.174,0.273
					c-0.25,0.399-0.127,0.926,0.272,1.175c0.4,0.249,0.926,0.127,1.175-0.273C23.893,18.411,23.771,17.885,23.37,17.636"/>
			</g>
		</g>
	</g>
</g>
</svg>
