<?xml version="1.0" encoding="utf-8"?>
<!-- Generator: Adobe Illustrator 16.0.0, SVG Export Plug-In . SVG Version: 6.00 Build 0)  -->
<!DOCTYPE svg PUBLIC "-//W3C//DTD SVG 1.1//EN" "http://www.w3.org/Graphics/SVG/1.1/DTD/svg11.dtd">
<svg version="1.1" id="Слой_1" xmlns="http://www.w3.org/2000/svg" xmlns:xlink="http://www.w3.org/1999/xlink" x="0px" y="0px"
	 width="42px" height="38px" viewBox="0 0 42 38" enable-background="new 0 0 42 38" xml:space="preserve">
<g enable-background="new    ">
	<g>
		<defs>
			<rect id="SVGID_1_" y="0" width="42" height="38"/>
		</defs>
		<clipPath id="SVGID_2_">
			<use xlink:href="#SVGID_1_"  overflow="visible"/>
		</clipPath>
		<g clip-path="url(#SVGID_2_)">
			<defs>
				<rect id="SVGID_3_" x="-4" y="-6" width="50" height="50"/>
			</defs>
			<clipPath id="SVGID_4_">
				<use xlink:href="#SVGID_3_"  overflow="visible"/>
			</clipPath>
			<g clip-path="url(#SVGID_4_)">
				<defs>
					<rect id="SVGID_5_" x="-4" y="-6" width="50" height="50"/>
				</defs>
				<clipPath id="SVGID_6_">
					<use xlink:href="#SVGID_5_"  overflow="visible"/>
				</clipPath>
				<path clip-path="url(#SVGID_6_)" fill="#00BEBB" d="M27.667,21.082c0,3.684-2.985,6.668-6.667,6.668
					c-3.681,0-6.666-2.984-6.666-6.668c0-3.68,2.985-6.666,6.666-6.666C24.682,14.417,27.667,17.402,27.667,21.082"/>
				<path clip-path="url(#SVGID_6_)" fill="#00BEBB" d="M14.75,0.25l-3.813,4.167H4.333c-2.302,0-4.167,1.864-4.167,4.166v25
					c0,2.303,1.865,4.168,4.167,4.168h33.333c2.302,0,4.166-1.865,4.166-4.168v-25c0-2.302-1.864-4.166-4.166-4.166h-6.604
					L27.25,0.25H14.75z M21,31.5c-5.75,0-10.417-4.668-10.417-10.418c0-5.75,4.667-10.416,10.417-10.416s10.417,4.666,10.417,10.416
					C31.417,26.832,26.75,31.5,21,31.5"/>
			</g>
		</g>
	</g>
</g>
</svg>
