<?xml version="1.0" encoding="utf-8"?>
<!-- Generator: Adobe Illustrator 16.0.0, SVG Export Plug-In . SVG Version: 6.00 Build 0)  -->
<!DOCTYPE svg PUBLIC "-//W3C//DTD SVG 1.1//EN" "http://www.w3.org/Graphics/SVG/1.1/DTD/svg11.dtd">
<svg version="1.1" id="Слой_1" xmlns="http://www.w3.org/2000/svg" xmlns:xlink="http://www.w3.org/1999/xlink" x="0px" y="0px"
	 width="20px" height="18px" viewBox="0 0 20 18" enable-background="new 0 0 20 18" xml:space="preserve">
<g enable-background="new    ">
	<g>
		<defs>
			<rect id="SVGID_1_" width="20" height="18"/>
		</defs>
		<clipPath id="SVGID_2_">
			<use xlink:href="#SVGID_1_"  overflow="visible"/>
		</clipPath>
		<g clip-path="url(#SVGID_2_)">
			<defs>
				<rect id="SVGID_3_" y="-1" width="20" height="20"/>
			</defs>
			<clipPath id="SVGID_4_">
				<use xlink:href="#SVGID_3_"  overflow="visible"/>
			</clipPath>
			<g clip-path="url(#SVGID_4_)">
				<defs>
					<rect id="SVGID_5_" y="-1" width="20" height="20"/>
				</defs>
				<clipPath id="SVGID_6_">
					<use xlink:href="#SVGID_5_"  overflow="visible"/>
				</clipPath>
				<path clip-path="url(#SVGID_6_)" fill="#404258" d="M18.298,7.81l-2.521-7.563L0.024,5.523l3.339,10.042v2.188h16.612V7.81
					H18.298z M3.363,10.827c-0.3-0.895-0.6-1.79-0.899-2.685C3.619,7.756,4.242,6.505,3.855,5.35
					c2.913-0.975,5.825-1.951,8.738-2.927c0.387,1.155,1.637,1.778,2.792,1.392c0.416,1.24,0.831,2.48,1.246,3.721
					c-0.197,0.066-0.378,0.156-0.551,0.274h-3.99c-0.016-1.393-1.149-2.513-2.542-2.513c-1.393,0-2.526,1.12-2.542,2.513H3.363
					V10.827z M18.482,14.607c-1.218,0-2.205,0.919-2.205,2.052H7.062c0-1.133-0.987-2.052-2.206-2.052v-3.651
					c1.218,0,2.206-0.919,2.206-2.053h9.215c0,1.134,0.987,2.053,2.205,2.053V14.607z"/>
				<path clip-path="url(#SVGID_6_)" fill="#404258" d="M13.842,6.945c0.327,0.078,0.656-0.124,0.733-0.451
					c0.079-0.327-0.124-0.655-0.451-0.734c-0.327-0.077-0.655,0.125-0.733,0.452S13.514,6.867,13.842,6.945"/>
				<path clip-path="url(#SVGID_6_)" fill="#404258" d="M10.326,10.624c-1.192,0.742-1.556,2.311-0.813,3.502
					s2.31,1.556,3.501,0.813c1.191-0.741,1.556-2.31,0.813-3.501C13.084,10.246,11.518,9.882,10.326,10.624"/>
				<path clip-path="url(#SVGID_6_)" fill="#404258" d="M6.67,12.265c-0.286,0.178-0.373,0.554-0.195,0.839
					c0.178,0.286,0.553,0.373,0.839,0.195s0.373-0.554,0.195-0.839C7.331,12.174,6.955,12.087,6.67,12.265"/>
				<path clip-path="url(#SVGID_6_)" fill="#404258" d="M16.669,12.265c-0.285-0.178-0.661-0.091-0.839,0.195
					c-0.178,0.285-0.09,0.661,0.195,0.839s0.66,0.091,0.838-0.195C17.041,12.818,16.955,12.442,16.669,12.265"/>
			</g>
		</g>
	</g>
</g>
</svg>
