<?xml version="1.0" encoding="utf-8"?>
<!-- Generator: Adobe Illustrator 16.0.0, SVG Export Plug-In . SVG Version: 6.00 Build 0)  -->
<!DOCTYPE svg PUBLIC "-//W3C//DTD SVG 1.1//EN" "http://www.w3.org/Graphics/SVG/1.1/DTD/svg11.dtd">
<svg version="1.1" id="Слой_1" xmlns="http://www.w3.org/2000/svg" xmlns:xlink="http://www.w3.org/1999/xlink" x="0px" y="0px"
	 width="28px" height="28px" viewBox="0 0 28 28" enable-background="new 0 0 28 28" xml:space="preserve">
<g enable-background="new    ">
	<g>
		<defs>
			<rect id="SVGID_1_" width="28" height="28"/>
		</defs>
		<clipPath id="SVGID_2_">
			<use xlink:href="#SVGID_1_"  overflow="visible"/>
		</clipPath>
		<g clip-path="url(#SVGID_2_)">
			<defs>
				<rect id="SVGID_3_" width="28" height="28"/>
			</defs>
			<clipPath id="SVGID_4_">
				<use xlink:href="#SVGID_3_"  overflow="visible"/>
			</clipPath>
			<g clip-path="url(#SVGID_4_)">
				<defs>
					<rect id="SVGID_5_" width="28" height="28"/>
				</defs>
				<clipPath id="SVGID_6_">
					<use xlink:href="#SVGID_5_"  overflow="visible"/>
				</clipPath>
				<path clip-path="url(#SVGID_6_)" fill="#E6C96C" d="M14,1.485c3.35,0,6.492,1.3,8.854,3.66c2.361,2.361,3.662,5.507,3.662,8.854
					c0,3.349-1.301,6.492-3.662,8.854S17.35,26.515,14,26.515s-6.493-1.3-8.854-3.661S1.485,17.349,1.485,14s1.3-6.493,3.661-8.854
					C7.507,2.785,10.65,1.485,14,1.485 M14-0.015c-3.591,0-7.181,1.366-9.915,4.101c-5.467,5.466-5.467,14.361,0,19.828
					c2.734,2.734,6.324,4.101,9.915,4.101c3.59,0,7.182-1.366,9.914-4.101c5.468-5.467,5.468-14.362,0-19.828
					C21.182,1.352,17.59-0.015,14-0.015"/>
				
					<polyline clip-path="url(#SVGID_6_)" fill="none" stroke="#E6C96C" stroke-width="0.7" stroke-linecap="round" stroke-linejoin="round" stroke-miterlimit="10" points="
					25.833,20.519 10.547,20.519 10.547,23.187 4.413,17.052 10.561,10.903 10.561,13.941 17.283,13.941 17.283,16.979 23.4,10.858 
					17.277,4.734 17.277,7.386 2.25,7.386 				"/>
			</g>
		</g>
	</g>
</g>
</svg>
