<?xml version="1.0" encoding="utf-8"?>
<!-- Generator: Adobe Illustrator 16.0.0, SVG Export Plug-In . SVG Version: 6.00 Build 0)  -->
<!DOCTYPE svg PUBLIC "-//W3C//DTD SVG 1.1//EN" "http://www.w3.org/Graphics/SVG/1.1/DTD/svg11.dtd">
<svg version="1.1" id="Слой_1" xmlns="http://www.w3.org/2000/svg" xmlns:xlink="http://www.w3.org/1999/xlink" x="0px" y="0px"
	 width="28px" height="26px" viewBox="0 0 28 26" enable-background="new 0 0 28 26" xml:space="preserve">
<g enable-background="new    ">
	<g>
		<defs>
			<rect id="SVGID_1_" y="0" width="28" height="26"/>
		</defs>
		<clipPath id="SVGID_2_">
			<use xlink:href="#SVGID_1_"  overflow="visible"/>
		</clipPath>
		<g clip-path="url(#SVGID_2_)">
			<defs>
				<rect id="SVGID_3_" y="0" width="28" height="26.923"/>
			</defs>
			<clipPath id="SVGID_4_">
				<use xlink:href="#SVGID_3_"  overflow="visible"/>
			</clipPath>
			<polyline clip-path="url(#SVGID_4_)" fill="#E6C96C" points="1.11,13.462 7.556,24.625 20.444,24.625 15.611,16.252 
				12.389,16.252 10.777,13.462 			"/>
			
				<polyline clip-path="url(#SVGID_4_)" fill="none" stroke="#FFFFFF" stroke-width="0.6731" stroke-linecap="round" stroke-linejoin="round" points="
				20.444,24.625 15.611,16.252 12.389,16.252 10.777,13.462 			"/>
			<polygon clip-path="url(#SVGID_4_)" fill="#E6C96C" points="10.778,13.462 1.111,13.462 7.556,2.299 20.445,2.299 15.611,10.671 
				12.389,10.671 			"/>
			
				<polyline clip-path="url(#SVGID_4_)" fill="none" stroke="#FFFFFF" stroke-width="0.6731" stroke-linecap="round" stroke-linejoin="round" points="
				20.444,2.299 15.611,10.671 12.389,10.671 10.777,13.462 			"/>
		</g>
		<g clip-path="url(#SVGID_2_)">
			<defs>
				<rect id="SVGID_5_" x="0.09" y="0" width="27.82" height="26.923"/>
			</defs>
			<clipPath id="SVGID_6_">
				<use xlink:href="#SVGID_5_"  overflow="visible"/>
			</clipPath>
			<g clip-path="url(#SVGID_6_)">
				<defs>
					<rect id="SVGID_7_" y="0" width="28" height="26.923"/>
				</defs>
				<clipPath id="SVGID_8_">
					<use xlink:href="#SVGID_7_"  overflow="visible"/>
				</clipPath>
				
					<line clip-path="url(#SVGID_8_)" fill="none" stroke="#FFFFFF" stroke-width="0.6731" stroke-linecap="round" stroke-linejoin="round" x1="10.778" y1="13.462" x2="1.111" y2="13.462"/>
			</g>
		</g>
		<g clip-path="url(#SVGID_2_)">
			<defs>
				<rect id="SVGID_9_" y="0" width="28" height="26.923"/>
			</defs>
			<clipPath id="SVGID_10_">
				<use xlink:href="#SVGID_9_"  overflow="visible"/>
			</clipPath>
			
				<line clip-path="url(#SVGID_10_)" fill="none" stroke="#FFFFFF" stroke-width="0.9423" stroke-linejoin="round" x1="12.389" y1="10.67" x2="7.556" y2="2.299"/>
			<polyline clip-path="url(#SVGID_10_)" fill="none" stroke="#FFFFFF" stroke-width="0.9423" stroke-linejoin="round" points="
				14,13.462 7.555,24.625 14,13.462 			"/>
			
				<line clip-path="url(#SVGID_10_)" fill="none" stroke="#FFFFFF" stroke-width="0.5385" stroke-linejoin="round" x1="12.389" y1="10.671" x2="14" y2="13.462"/>
		</g>
		<g clip-path="url(#SVGID_2_)">
			<defs>
				<rect id="SVGID_11_" x="0.09" y="0" width="27.82" height="26.923"/>
			</defs>
			<clipPath id="SVGID_12_">
				<use xlink:href="#SVGID_11_"  overflow="visible"/>
			</clipPath>
			<g clip-path="url(#SVGID_12_)">
				<defs>
					<rect id="SVGID_13_" y="0" width="28" height="26.923"/>
				</defs>
				<clipPath id="SVGID_14_">
					<use xlink:href="#SVGID_13_"  overflow="visible"/>
				</clipPath>
				
					<line clip-path="url(#SVGID_14_)" fill="none" stroke="#FFFFFF" stroke-width="0.9423" stroke-linejoin="round" x1="14" y1="13.462" x2="26.889" y2="13.462"/>
				<polyline clip-path="url(#SVGID_14_)" fill="none" stroke="#FFFFFF" stroke-width="1.3462" stroke-linejoin="round" points="
					20.444,2.299 7.556,2.299 1.11,13.462 7.556,24.625 20.444,24.625 26.889,13.462 20.444,2.299 26.889,13.462 				"/>
			</g>
		</g>
	</g>
</g>
</svg>
