<?xml version="1.0" encoding="utf-8"?>
<!-- Generator: Adobe Illustrator 16.0.0, SVG Export Plug-In . SVG Version: 6.00 Build 0)  -->
<!DOCTYPE svg PUBLIC "-//W3C//DTD SVG 1.1//EN" "http://www.w3.org/Graphics/SVG/1.1/DTD/svg11.dtd">
<svg version="1.1" id="Слой_1" xmlns="http://www.w3.org/2000/svg" xmlns:xlink="http://www.w3.org/1999/xlink" x="0px" y="0px"
	 width="28px" height="25px" viewBox="0 0 28 25" enable-background="new 0 0 28 25" xml:space="preserve">
<g enable-background="new    ">
	<g>
		<defs>
			<rect id="SVGID_1_" width="28" height="25"/>
		</defs>
		<clipPath id="SVGID_2_">
			<use xlink:href="#SVGID_1_"  overflow="visible"/>
		</clipPath>
		<g clip-path="url(#SVGID_2_)">
			<defs>
				<rect id="SVGID_3_" y="-1" width="28" height="28"/>
			</defs>
			<clipPath id="SVGID_4_">
				<use xlink:href="#SVGID_3_"  overflow="visible"/>
			</clipPath>
			<g clip-path="url(#SVGID_4_)">
				<defs>
					<rect id="SVGID_5_" x="-26" y="-6" width="321" height="50"/>
				</defs>
				<clipPath id="SVGID_6_">
					<use xlink:href="#SVGID_5_"  overflow="visible"/>
				</clipPath>
				<g clip-path="url(#SVGID_6_)" enable-background="new    ">
					<g>
						<defs>
							<rect id="SVGID_7_" width="28" height="25"/>
						</defs>
						<clipPath id="SVGID_8_">
							<use xlink:href="#SVGID_7_"  overflow="visible"/>
						</clipPath>
						<g clip-path="url(#SVGID_8_)">
							<defs>
								<rect id="SVGID_9_" y="0.195" width="28" height="24.498"/>
							</defs>
							<clipPath id="SVGID_10_">
								<use xlink:href="#SVGID_9_"  overflow="visible"/>
							</clipPath>
							<g clip-path="url(#SVGID_10_)">
								<defs>
									<rect id="SVGID_11_" width="28" height="24.889"/>
								</defs>
								<clipPath id="SVGID_12_">
									<use xlink:href="#SVGID_11_"  overflow="visible"/>
								</clipPath>
								<path clip-path="url(#SVGID_12_)" fill="#FFFFFF" d="M20.533,24.227c-0.16,0-0.318-0.084-0.404-0.233l-4.765-8.253h-2.997
									c-0.167,0-0.321-0.089-0.404-0.233l-1.5-2.596H0.933c-0.257,0-0.466-0.209-0.466-0.467s0.209-0.467,0.466-0.467h9.531
									l1.5-2.596c0.083-0.144,0.237-0.233,0.404-0.233h2.997l4.765-8.253c0.129-0.224,0.415-0.3,0.638-0.171
									c0.224,0.129,0.3,0.415,0.171,0.638l-4.9,8.486c-0.082,0.145-0.236,0.233-0.403,0.233h-2.997l-1.364,2.362l1.364,2.362
									h2.997c0.167,0,0.321,0.089,0.403,0.233l4.9,8.487c0.129,0.223,0.053,0.508-0.171,0.637
									C20.693,24.207,20.612,24.227,20.533,24.227"/>
								<path clip-path="url(#SVGID_12_)" fill="#FFFFFF" d="M20.533,24.693H7.467c-0.333,0-0.642-0.178-0.808-0.467L0.125,12.911
									c-0.167-0.288-0.167-0.645,0-0.934L6.659,0.662c0.167-0.289,0.475-0.467,0.808-0.467h13.048
									c0.34,0.007,0.649,0.162,0.826,0.467l6.533,11.315c0.167,0.289,0.167,0.646,0,0.934l-6.533,11.315
									C21.176,24.516,20.867,24.693,20.533,24.693 M8.006,22.827h11.988l5.995-10.383L19.994,2.062H8.006L2.011,12.444
									L8.006,22.827z"/>
								<path clip-path="url(#SVGID_12_)" fill="#FFFFFF" d="M7.466,24.383c-0.105,0-0.212-0.027-0.31-0.084
									c-0.2-0.115-0.312-0.324-0.312-0.539c0-0.105,0.027-0.213,0.083-0.311l6.353-11.005L6.928,1.439l1.078-0.622l6.354,11.005
									h12.707v1.244H14.359L8.006,24.071C7.891,24.271,7.682,24.383,7.466,24.383"/>
							</g>
						</g>
					</g>
				</g>
			</g>
		</g>
	</g>
</g>
</svg>
