<?xml version="1.0" encoding="utf-8"?>
<!-- Generator: Adobe Illustrator 16.0.0, SVG Export Plug-In . SVG Version: 6.00 Build 0)  -->
<!DOCTYPE svg PUBLIC "-//W3C//DTD SVG 1.1//EN" "http://www.w3.org/Graphics/SVG/1.1/DTD/svg11.dtd">
<svg version="1.1" id="Слой_1" xmlns="http://www.w3.org/2000/svg" xmlns:xlink="http://www.w3.org/1999/xlink" x="0px" y="0px"
	 width="24px" height="18px" viewBox="0 0 24 18" enable-background="new 0 0 24 18" xml:space="preserve">
<g enable-background="new    ">
	<g>
		<defs>
			<rect id="SVGID_1_" width="24" height="18"/>
		</defs>
		<clipPath id="SVGID_2_">
			<use xlink:href="#SVGID_1_"  overflow="visible"/>
		</clipPath>
		<g clip-path="url(#SVGID_2_)">
			<defs>
				<rect id="SVGID_3_" y="-3" width="24" height="24"/>
			</defs>
			<clipPath id="SVGID_4_">
				<use xlink:href="#SVGID_3_"  overflow="visible"/>
			</clipPath>
			<g clip-path="url(#SVGID_4_)">
				<defs>
					<rect id="SVGID_5_" y="-3" width="24" height="24"/>
				</defs>
				<clipPath id="SVGID_6_">
					<use xlink:href="#SVGID_5_"  overflow="visible"/>
				</clipPath>
				<path clip-path="url(#SVGID_6_)" fill="#00BEBB" d="M22,0H7C6.31,0,5.765,0.35,5.405,0.88L0,8.995l5.405,8.114
					C5.765,17.641,6.31,18,7,18h15c1.105,0,2-0.894,2-2V2C24,0.895,23.105,0,22,0 M19,12.585L17.585,14L14,10.415L10.415,14
					L9,12.585L12.585,9L9,5.415L10.415,4L14,7.585L17.585,4L19,5.415L15.415,9L19,12.585z"/>
			</g>
		</g>
	</g>
</g>
</svg>
