<?xml version="1.0" encoding="utf-8"?>
<!-- Generator: Adobe Illustrator 16.0.0, SVG Export Plug-In . SVG Version: 6.00 Build 0)  -->
<!DOCTYPE svg PUBLIC "-//W3C//DTD SVG 1.1//EN" "http://www.w3.org/Graphics/SVG/1.1/DTD/svg11.dtd">
<svg version="1.1" id="Слой_1" xmlns="http://www.w3.org/2000/svg" xmlns:xlink="http://www.w3.org/1999/xlink" x="0px" y="0px"
	 width="101px" height="24px" viewBox="0 0 101 24" enable-background="new 0 0 101 24" xml:space="preserve">
<g enable-background="new    ">
	<g>
		<defs>
			<rect id="SVGID_1_" width="101" height="24"/>
		</defs>
		<clipPath id="SVGID_2_">
			<use xlink:href="#SVGID_1_"  overflow="visible"/>
		</clipPath>
		<g clip-path="url(#SVGID_2_)">
			<defs>
				<rect id="SVGID_3_" x="0.283" width="100.435" height="24"/>
			</defs>
			<clipPath id="SVGID_4_">
				<use xlink:href="#SVGID_3_"  overflow="visible"/>
			</clipPath>
			<g clip-path="url(#SVGID_4_)">
				<defs>
					<rect id="SVGID_5_" width="101" height="24"/>
				</defs>
				<clipPath id="SVGID_6_">
					<use xlink:href="#SVGID_5_"  overflow="visible"/>
				</clipPath>
				<path clip-path="url(#SVGID_6_)" fill="#414259" d="M99.54,1.778h-1.532c-0.98,0-1.71,0.647-2.271,1.441l-1.521,2.132
					c0,0-0.001,0.001-0.001,0.002l-3.283,4.614l-2.849-3.997c-0.014-0.021-0.021-0.04-0.034-0.062L86.13,3.223
					c-0.563-0.791-1.301-1.439-2.281-1.439h-1.423c-0.979,0-1.615,0.648-1.048,1.438l1.931,2.691
					c0.006,0.004,0.01,0.012,0.015,0.017l5.49,7.647v5.337v1.951v1.371c0,0.969,0.804,1.762,1.786,1.76h0.662
					c0.979-0.002,1.783-0.797,1.783-1.768v-1.363v-1.951v-5.348l5.854-8.145c0.02-0.023,0.041-0.046,0.061-0.07l1.526-2.139
					C101.054,2.426,100.519,1.778,99.54,1.778 M35.516,12.188l5.51-5.232c0.025-0.021,3.896-3.697,3.896-3.697
					c0.693-0.661-0.056-1.479-1.01-1.479h-2.095c-0.954,0-1.437,0.543-2.132,1.207l-4.078,3.901
					c-0.006,0.003-0.008,0.006-0.01,0.012l-2.625,2.51V6.563h-0.012c0.002-0.037,0.012-0.074,0.012-0.114V3.542
					c0-0.968-0.781-1.763-1.734-1.763h-0.779c-0.953,0-1.735,0.795-1.735,1.763v2.906c0,0.04,0.009,0.077,0.011,0.114h-0.011v12.332
					v0.117v3.224c0,0.971,0.782,1.766,1.735,1.766h0.779c0.953,0,1.734-0.795,1.734-1.766v-3.224v-0.117v-3.677l3.739,3.794h0.004
					l3.683,3.741c0.676,0.686,1.141,1.245,2.094,1.245h2.1c0.955,0,1.36-1.146,0.688-1.832L35.516,12.188z M85.255,21.798h0.01
					L78.105,4.24h-0.003l-0.335-0.823c-0.368-0.901-1.475-1.639-2.459-1.639h-0.712c-0.985,0-2.094,0.737-2.457,1.64L71.81,4.24
					h-0.013l-7.132,17.464h0.004l-0.271,0.656c-0.37,0.9,0.137,1.637,1.125,1.637h1.595c0.987,0,1.449-0.744,1.792-1.652
					l0.241-0.641h0.009l1.442-3.779h8.718l0.118,0.305l0.088,0.182l1.285,3.39h0.005l0.206,0.548
					c0.343,0.906,0.944,1.652,1.934,1.652h1.411c0.986,0,1.491-0.733,1.12-1.637L85.255,21.798z M77.006,14.366H72.9
					c-0.494,0-0.744-0.369-0.562-0.818l2.271-5.482c0.187-0.448,0.49-0.448,0.676,0l2.278,5.482
					C77.751,13.997,77.5,14.366,77.006,14.366 M67.286,11.623c0.365-0.866,0.548-1.858,0.548-2.967c0-1.102-0.183-2.087-0.548-2.949
					c-0.36-0.859-0.907-1.597-1.637-2.188c-1.441-1.172-3.543-1.741-6.215-1.741h-1.15H57.48h-3.826c-1.002,0-1.82,0.795-1.82,1.763
					v2.406v1.5v11.585v0.351v2.853c0,0.971,0.818,1.766,1.82,1.766h0.711c1,0,1.821-0.795,1.821-1.766v-2.853v-0.351v-3.485h3.25
					c2.671,0,4.771-0.567,6.213-1.735C66.374,13.227,66.925,12.488,67.286,11.623 M63.064,10.112
					c-0.164,0.412-0.406,0.754-0.727,1.038l0.002-0.005l-0.002,0.005c-0.646,0.56-1.605,0.867-2.901,0.867h-1.681h-0.099h-0.561
					c-0.5,0-0.91-0.396-0.91-0.884V6.188c0-0.483,0.41-0.881,0.91-0.881h0.561h0.1h1.681c1.296,0,2.258,0.306,2.901,0.869
					c0.32,0.28,0.563,0.621,0.728,1.032c0.163,0.411,0.247,0.895,0.247,1.446C63.313,9.213,63.229,9.698,63.064,10.112 M23.934,3.3
					c-2.017-2.193-4.76-3.305-8.081-3.3c-3.338-0.005-6.088,1.105-8.107,3.3C6.26,4.903,5.321,6.938,4.933,9.339v0.008l-0.18,1.892
					v0.012c-0.014,0.239-0.027,0.487-0.027,0.755c0,0.398,0.018,0.787,0.042,1.162v0.011l0.245,1.895v0.007
					c0.425,2.221,1.329,4.118,2.732,5.639c2.021,2.18,4.771,3.29,8.107,3.284c3.321,0.006,6.062-1.104,8.082-3.299
					c2.005-2.174,3.014-5.114,3.014-8.695C26.948,8.418,25.943,5.473,23.934,3.3 M20.646,18.186
					c-0.597,0.738-1.282,1.277-2.07,1.638c-0.789,0.354-1.689,0.537-2.722,0.537c-1.036,0-1.939-0.183-2.73-0.537
					c-0.795-0.358-1.479-0.904-2.084-1.642c-0.704-0.864-1.204-1.94-1.507-3.211l-0.276-1.854c-0.011-0.111-0.017-0.348-0.02-0.6
					c-0.005-0.265-0.009-0.558-0.009-0.798c0-0.204,0.004-0.375,0.007-0.444L9.45,9.423c0.28-1.445,0.813-2.657,1.59-3.613
					l-0.003,0.005h0.003c0.605-0.743,1.289-1.282,2.084-1.641c0.792-0.356,1.694-0.539,2.73-0.539c1.032,0,1.933,0.183,2.722,0.539
					c0.789,0.357,1.474,0.896,2.07,1.636c1.195,1.477,1.811,3.551,1.811,6.191C22.457,14.643,21.84,16.709,20.646,18.186
					 M15.795,10.665H1.172L2.547,8H17.17L15.795,10.665z M13.055,15.999H0.283l1.45-2.667h12.771L13.055,15.999z"/>
			</g>
		</g>
	</g>
</g>
</svg>
