<?xml version="1.0" encoding="utf-8"?>
<!-- Generator: Adobe Illustrator 16.0.0, SVG Export Plug-In . SVG Version: 6.00 Build 0)  -->
<!DOCTYPE svg PUBLIC "-//W3C//DTD SVG 1.1//EN" "http://www.w3.org/Graphics/SVG/1.1/DTD/svg11.dtd">
<svg version="1.1" id="Слой_1" xmlns="http://www.w3.org/2000/svg" xmlns:xlink="http://www.w3.org/1999/xlink" x="0px" y="0px"
	 width="92px" height="35px" viewBox="0 0 92 35" enable-background="new 0 0 92 35" xml:space="preserve">
<g enable-background="new    ">
	<g>
		<defs>
			<rect id="SVGID_1_" width="92" height="35"/>
		</defs>
		<clipPath id="SVGID_2_">
			<use xlink:href="#SVGID_1_"  overflow="visible"/>
		</clipPath>
		<g clip-path="url(#SVGID_2_)">
			<defs>
				<rect id="SVGID_3_" y="0.021" width="91.558" height="34.957"/>
			</defs>
			<clipPath id="SVGID_4_">
				<use xlink:href="#SVGID_3_"  overflow="visible"/>
			</clipPath>
			<g clip-path="url(#SVGID_4_)">
				<defs>
					<rect id="SVGID_5_" width="91.558" height="35"/>
				</defs>
				<clipPath id="SVGID_6_">
					<use xlink:href="#SVGID_5_"  overflow="visible"/>
				</clipPath>
				<path clip-path="url(#SVGID_6_)" fill-rule="evenodd" clip-rule="evenodd" fill="#404356" d="M79.373,0.02
					c-2.272,1.32-4.032,2.9-4.938,5.252c-0.751,1.949-0.409,3.706,0.938,4.943c0.866,0.795,1.936,1.138,3.081,1.251
					c0.395,0.039,0.796,0.006,1.238,0.006c-0.521-0.198-1.035-0.323-1.478-0.574c-1.597-0.908-2.038-2.788-1.063-4.589
					c1.283-2.374,3.322-3.743,5.949-4.202c0.758-0.133,1.576-0.126,2.335,0.005c2.185,0.378,3.238,2.274,2.484,4.357
					c-0.161,0.446-0.39,0.868-0.59,1.306c1.785-1.728,3.366-5.064,1.057-7.711c1.857,0.254,3.036,1.691,3.159,3.521
					c0.154,2.32-1.072,3.968-2.483,5.508c-2.264,2.472-5.118,3.967-8.406,4.551c-1.847,0.328-3.712,0.271-5.453-0.571
					c-1.919-0.927-3.065-2.406-3.041-4.607c0.009-0.851,0.154-1.7,0.23-2.483c-0.672,1.079-1.179,2.334-1.426,3.677
					c-0.824,4.481,1.695,7.792,5.982,8.726c3.742,0.814,7.302,0.028,10.676-1.645c1.326-0.657,2.569-1.48,3.896-2.255v0.608
					c0,5.395,0.001,10.792,0.001,16.186c0,2.164-1.559,3.695-3.777,3.695c-18.782,0.002-37.565,0.002-56.348,0.002
					c-9.189,0-18.377,0-27.566,0.001c-2.295,0.001-3.835-1.537-3.835-3.832c0-9.147,0.021-18.296-0.015-27.444
					c-0.009-2.301,2.035-3.699,3.668-3.698C28.739,0.028,53.83,0.021,78.921,0.02H79.373z M66.202,13.176
					c0-1.415,0.012-2.751-0.003-4.086c-0.018-1.776-1.391-3.442-3.158-3.672c-1.156-0.15-2.345-0.169-3.511-0.11
					c-2.549,0.13-3.896,2.329-3.811,4.128c0.08,1.68,0.015,3.367,0.018,5.05c0.003,1.82,1.131,3.386,2.897,3.773
					c0.913,0.199,1.889,0.131,2.837,0.149c1.15,0.021,2.302,0.005,3.449,0.005c0.254-0.888,0.492-1.72,0.734-2.566
					c-1.891,0-3.694-0.004-5.497,0.001c-1.349,0.004-1.858-0.502-1.857-1.868c0-0.804,0-0.805,0.827-0.806
					C61.458,13.175,63.787,13.176,66.202,13.176 M11.072,18.419c1.951,0.067,3.948-1.509,3.993-3.99
					c0.03-1.702,0.013-3.404,0.003-5.107c-0.011-1.95-1.289-3.614-3.216-3.895c-1.263-0.184-2.577-0.13-3.858-0.042
					C6.085,5.518,4.502,7.18,4.566,9.432c0.023,0.81,0.003,1.621,0.002,2.431c0,0.832,0.026,1.663-0.005,2.493
					c-0.094,2.495,1.941,4.07,4.078,4.07L11.072,18.419z M27.933,18.395c0.021-0.123,0.041-0.182,0.041-0.239
					c0.001-3.042,0.024-6.085-0.008-9.127c-0.018-1.751-1.521-3.438-3.244-3.619c-1.143-0.12-2.307-0.17-3.454-0.104
					c-2.265,0.13-3.806,1.935-3.768,3.94c0.05,2.717,0.01,5.435,0.009,8.153c0,0.318,0,0.637,0,0.979h2.564V17.68
					c0-2.758-0.002-5.517,0.002-8.275c0.001-0.927,0.538-1.46,1.459-1.464c0.791-0.003,1.582-0.003,2.373,0
					c0.938,0.003,1.409,0.476,1.409,1.415c0.001,2.799,0,5.598,0,8.397c0,0.213,0,0.426,0,0.643H27.933z M30.432,5.298v0.721
					c0,2.779,0,5.558,0,8.337c0,2.465,1.957,4.27,4.402,4.051c0.133-0.012,0.337-0.105,0.372-0.207
					c0.258-0.757,0.481-1.526,0.732-2.344c-0.48,0-0.882,0.015-1.283-0.003c-0.975-0.044-1.605-0.463-1.585-1.613
					c0.048-2.758,0.015-5.518,0.015-8.276c0-0.214,0-0.429,0-0.666H30.432z M37.89,18.374h2.503V5.325H37.89V18.374z M79.951,29.354
					c0-1.407,0.026-2.744-0.01-4.078c-0.021-0.821-0.635-1.332-1.461-1.394c-0.754-0.056-1.43,0.097-1.998,0.597
					c-0.673-0.749-1.779-0.825-2.917-0.252c-0.298-0.155-0.563-0.296-0.888-0.466v5.573h0.825c0-1.189-0.011-2.341,0.004-3.492
					c0.01-0.774,0.584-1.234,1.48-1.224c0.73,0.01,0.838,0.154,0.838,1.123c-0.001,1.191-0.001,2.383-0.001,3.587h0.947
					c0-1.14,0.063-2.235-0.021-3.319c-0.066-0.852,0.644-1.472,1.491-1.396c0.607,0.055,0.838,0.26,0.835,0.863
					c-0.004,0.911-0.008,1.822-0.011,2.734c-0.001,0.375,0,0.752,0,1.144H79.951z M5.446,29.382c0.576,0,1.12,0.001,1.664-0.001
					c0.223,0,0.449,0.01,0.669-0.018c0.812-0.105,1.627-0.9,1.691-1.737c0.06-0.785,0.064-1.581,0.018-2.367
					c-0.052-0.87-0.595-1.346-1.461-1.367c-0.56-0.014-1.12-0.003-1.746-0.003v-2.264H5.446V29.382z M38.2,29.381
					c0-0.287,0-0.484,0-0.684c-0.002-1.135,0.021-2.271-0.018-3.406c-0.022-0.652-0.547-1.325-1.098-1.367
					c-0.833-0.063-1.673-0.016-2.513-0.016v0.713c0.711,0,1.399,0.006,2.086-0.002c0.412-0.006,0.604,0.219,0.603,0.594
					c-0.001,0.354,0.138,0.785-0.453,0.878c-0.534,0.083-1.061,0.228-1.583,0.374c-0.699,0.197-1.227,0.953-1.144,1.598
					c0.105,0.815,0.672,1.308,1.54,1.316C36.45,29.388,37.279,29.381,38.2,29.381 M67.303,26.488c0,0.304,0.01,0.607-0.002,0.912
					c-0.033,0.83,0.172,1.598,1.036,1.836c0.882,0.244,1.846,0.406,2.617-0.334c0.229-0.22,0.438-0.563,0.467-0.867
					c0.085-0.902,0.14-1.818,0.086-2.721c-0.057-0.939-0.672-1.422-1.613-1.428c-0.404-0.003-0.81-0.002-1.214,0.007
					c-0.756,0.017-1.333,0.563-1.372,1.32C67.285,25.638,67.304,26.063,67.303,26.488 M10.983,24.62c0.392,0,0.715,0,1.038,0
					c0.345,0,0.689-0.003,1.034,0.001c0.435,0.006,0.666,0.229,0.693,0.664c0.024,0.396,0.043,0.731-0.516,0.818
					c-0.63,0.099-1.26,0.272-1.855,0.502c-0.619,0.238-0.89,0.859-0.79,1.609c0.082,0.609,0.477,1.061,1.04,1.114
					c0.977,0.092,1.969,0.025,2.97,0.025c0-1.442,0.017-2.818-0.007-4.194c-0.01-0.596-0.486-1.189-1.06-1.235
					c-0.838-0.067-1.686-0.017-2.546-0.017V24.62z M53.721,27.352c0.283-0.081,0.475-0.136,0.666-0.189
					c0.578-0.162,1.18-0.268,1.729-0.498c0.606-0.254,0.941-1.023,0.81-1.613c-0.149-0.67-0.719-1.135-1.435-1.159
					c-0.364-0.013-0.729-0.009-1.094-0.002c-0.784,0.015-1.38,0.333-1.451,1.085c-0.098,1.043,0.025,2.111,0.111,3.164
					c0.019,0.223,0.259,0.449,0.437,0.635c0.932,0.972,2.102,0.499,3.225,0.589c-0.016-0.279-0.026-0.474-0.036-0.647
					C55.63,28.386,54.07,29.275,53.721,27.352 M15.993,23.779v5.545h0.886c0-0.151,0-0.251,0-0.35c0-1.052-0.023-2.104,0.005-3.154
					c0.021-0.78,0.62-1.232,1.502-1.199c0.669,0.024,0.831,0.249,0.835,1.169c0.001,0.283-0.001,0.566-0.001,0.851
					c0,0.902,0,1.806,0,2.698h0.85c0-0.313,0-0.592,0-0.871c-0.002-1.093,0.031-2.188-0.021-3.278
					c-0.037-0.769-0.69-1.327-1.473-1.294c-0.582,0.025-1.16,0.152-1.803,0.243C16.612,24.064,16.343,23.941,15.993,23.779
					 M43.612,29.353c0-1.386,0.039-2.719-0.014-4.048c-0.036-0.939-0.583-1.42-1.541-1.404c-0.562,0.01-1.12,0.16-1.729,0.254
					c-0.165-0.088-0.422-0.228-0.75-0.404v5.576h0.817c0-1.178-0.008-2.309,0.003-3.44c0.008-0.805,0.589-1.28,1.512-1.266
					c0.701,0.011,0.813,0.169,0.813,1.146c0,1.188,0,2.377,0,3.587H43.612z M44.835,29.346c0.149,0.014,0.229,0.026,0.309,0.027
					c0.708,0.004,1.417,0.02,2.126,0.005c0.869-0.017,1.434-0.485,1.526-1.235c0.104-0.848-0.313-1.438-1.196-1.69
					c-0.424-0.121-0.844-0.271-1.276-0.353c-0.478-0.092-0.743-0.345-0.685-0.823c0.057-0.466,0.352-0.681,0.845-0.661
					c0.677,0.026,1.355,0.006,2.062,0.006c-0.015-0.299-0.023-0.494-0.035-0.73c-0.745,0-1.45-0.004-2.154,0
					c-0.855,0.006-1.459,0.443-1.565,1.121c-0.144,0.916,0.213,1.491,1.132,1.785c0.438,0.14,0.885,0.258,1.333,0.363
					c0.451,0.105,0.758,0.338,0.685,0.832c-0.076,0.51-0.441,0.666-0.927,0.654c-0.722-0.016-1.444-0.004-2.178-0.004V29.346z
					 M50.86,24.62h0.764h0.645v-0.745h-0.703h-0.645c-0.161-1.25-0.161-1.25,1.489-1.551c-0.133-0.266-0.225-0.671-0.361-0.688
					c-0.874-0.103-2.069,0.214-2.078,1.519c-0.014,2.006-0.026,4.011-0.035,6.017c0,0.055,0.041,0.109,0.061,0.159h0.864V26.98
					V24.62z M66.446,23.886c-0.417,0-0.759,0-1.101,0c-0.364,0-0.729-0.006-1.094,0c-0.789,0.014-1.361,0.373-1.438,1.164
					c-0.098,0.989-0.093,2.014,0.055,2.995c0.11,0.733,0.737,1.214,1.494,1.301c0.676,0.078,1.368,0.018,2.076,0.018v-0.658
					c-0.07-0.027-0.105-0.053-0.143-0.053c-0.485-0.006-0.972-0.004-1.457-0.012c-0.765-0.012-1.189-0.436-1.201-1.207
					c-0.01-0.628-0.004-1.256-0.003-1.883c0.001-0.809,0.125-0.929,0.963-0.93c0.622-0.002,1.244,0,1.849,0V23.886z M27.02,21.634
					c-0.013,0.226-0.032,0.404-0.032,0.583c0,1.762,0.006,3.525,0.004,5.287c-0.002,1.529,0.674,2.092,2.205,1.785
					c-0.009-0.204-0.018-0.414-0.028-0.63c-0.532-0.035-1.2,0.107-1.253-0.535c-0.096-1.155-0.027-2.323-0.027-3.529h1.268v-0.686
					c-0.454-0.026-0.867-0.049-1.32-0.075v-2.2H27.02z M58.979,29.351c0-1.147-0.006-2.236,0.002-3.325
					c0.007-0.963,0.449-1.398,1.406-1.404c0.257-0.002,0.514,0,0.784,0v-0.826c-0.791,0.119-1.525,0.228-2.325,0.347
					c-0.151-0.071-0.422-0.196-0.757-0.354v5.563H58.979z M33.314,23.854c-0.805,0.111-1.619-0.199-2.148,0.422
					c-0.31-0.176-0.585-0.332-0.935-0.529v5.585h0.89c0-1.237-0.021-2.427,0.009-3.615c0.017-0.633,0.504-1.065,1.138-1.093
					c0.34-0.014,0.68-0.002,1.046-0.002V23.854z M25.867,29.338c0.061-0.079,0.122-0.157,0.182-0.236
					c-0.73-0.662-1.445-1.344-2.199-1.98c-0.43-0.363-0.433-0.603-0.01-0.992c0.743-0.686,1.423-1.439,2.13-2.164
					c-0.433-0.076-0.922-0.158-1.144,0.048c-0.878,0.819-1.673,1.728-2.508,2.613c0.72,0.772,1.435,1.479,2.075,2.249
					C24.818,29.387,25.301,29.439,25.867,29.338 M22.258,23.91h-0.794v5.455h0.794V23.91z M61.425,28.454h-0.89v0.896h0.89V28.454z
					 M53.29,18.395c0.021-0.123,0.041-0.182,0.041-0.239c0.001-3.042,0.024-6.085-0.008-9.127c-0.019-1.751-1.521-3.438-3.244-3.619
					c-1.144-0.12-2.308-0.17-3.453-0.104c-2.265,0.13-3.807,1.935-3.769,3.94c0.051,2.717,0.01,5.435,0.009,8.153
					c0,0.318,0,0.637,0,0.979h2.565V17.68c0-2.758-0.003-5.517,0.001-8.275c0.001-0.927,0.538-1.46,1.459-1.464
					c0.791-0.003,1.582-0.003,2.373,0c0.938,0.003,1.409,0.476,1.409,1.415c0.002,2.799,0.001,5.598,0.001,8.397
					c0,0.213,0,0.426,0,0.643H53.29z"/>
				<path clip-path="url(#SVGID_6_)" fill-rule="evenodd" clip-rule="evenodd" fill="#404356" d="M58.306,10.477
					c0-0.402-0.023-0.745,0.005-1.084c0.086-1.05,0.538-1.452,1.601-1.453c0.748-0.001,1.496-0.003,2.244,0.001
					c0.908,0.005,1.377,0.436,1.441,1.344c0.027,0.379,0.005,0.762,0.005,1.192H58.306z"/>
				<path clip-path="url(#SVGID_6_)" fill-rule="evenodd" clip-rule="evenodd" fill="#404356" d="M7.169,11.842
					c0-0.831-0.006-1.663,0.002-2.493C7.179,8.47,7.686,7.952,8.554,7.942c0.831-0.01,1.663-0.011,2.494-0.001
					c0.847,0.01,1.357,0.51,1.363,1.36c0.012,1.723,0.01,3.446,0.001,5.169c-0.004,0.767-0.371,1.251-1.2,1.33
					c-0.94,0.09-1.904,0.087-2.844-0.008c-0.866-0.088-1.193-0.575-1.198-1.457C7.166,13.504,7.169,12.673,7.169,11.842"/>
				<path clip-path="url(#SVGID_6_)" fill-rule="evenodd" clip-rule="evenodd" fill="#404356" d="M6.337,28.642v-4.018
					c0.577,0,1.166-0.062,1.728,0.03c0.221,0.037,0.522,0.408,0.546,0.65c0.072,0.722,0.044,1.455,0.019,2.184
					c-0.021,0.602-0.577,1.122-1.19,1.15C7.098,28.654,6.753,28.642,6.337,28.642"/>
				<path clip-path="url(#SVGID_6_)" fill-rule="evenodd" clip-rule="evenodd" fill="#404356" d="M37.238,26.756v1.874
					c-0.596,0-1.199,0.058-1.779-0.03c-0.203-0.031-0.476-0.412-0.49-0.646s0.204-0.621,0.414-0.703
					C35.949,27.023,36.565,26.924,37.238,26.756"/>
				<path clip-path="url(#SVGID_6_)" fill-rule="evenodd" clip-rule="evenodd" fill="#404356" d="M70.601,26.609
					c0,0.303,0.002,0.607,0,0.911c-0.007,0.886-0.231,1.115-1.097,1.12c-0.163,0-0.326,0.017-0.486-0.002
					c-0.533-0.063-0.854-0.352-0.864-0.904c-0.013-0.791-0.004-1.58-0.003-2.37c0-0.081-0.015-0.173,0.019-0.24
					c0.4-0.839,1.166-0.437,1.779-0.485c0.468-0.039,0.664,0.297,0.651,0.756c-0.011,0.404-0.002,0.809-0.002,1.215H70.601z"/>
				<path clip-path="url(#SVGID_6_)" fill-rule="evenodd" clip-rule="evenodd" fill="#404356" d="M13.718,26.734v1.909
					c-0.545,0-1.064-0.019-1.582,0.006c-0.399,0.018-0.606-0.19-0.692-0.53c-0.1-0.394,0.019-0.758,0.416-0.892
					C12.442,27.031,13.048,26.908,13.718,26.734"/>
				<path clip-path="url(#SVGID_6_)" fill-rule="evenodd" clip-rule="evenodd" fill="#404356" d="M53.732,26.468
					c0-0.192-0.002-0.31,0-0.426c0.027-1.368,0.331-1.649,1.673-1.395c0.262,0.05,0.596,0.394,0.649,0.653
					c0.044,0.208-0.236,0.566-0.465,0.726c-0.249,0.173-0.602,0.203-0.914,0.274C54.387,26.367,54.091,26.406,53.732,26.468"/>
			</g>
		</g>
	</g>
</g>
</svg>
