<?xml version="1.0" encoding="utf-8"?>
<!-- Generator: Adobe Illustrator 16.0.0, SVG Export Plug-In . SVG Version: 6.00 Build 0)  -->
<!DOCTYPE svg PUBLIC "-//W3C//DTD SVG 1.1//EN" "http://www.w3.org/Graphics/SVG/1.1/DTD/svg11.dtd">
<svg version="1.1" id="Слой_1" xmlns="http://www.w3.org/2000/svg" xmlns:xlink="http://www.w3.org/1999/xlink" x="0px" y="0px"
	 width="89px" height="24px" viewBox="0 0 89 24" enable-background="new 0 0 89 24" xml:space="preserve">
<g enable-background="new    ">
	<g>
		<defs>
			<rect id="SVGID_1_" x="0" y="0" width="89" height="24"/>
		</defs>
		<clipPath id="SVGID_2_">
			<use xlink:href="#SVGID_1_"  overflow="visible"/>
		</clipPath>
		<g clip-path="url(#SVGID_2_)">
			<defs>
				<rect id="SVGID_3_" x="0.246" y="0" width="88.508" height="24"/>
			</defs>
			<clipPath id="SVGID_4_">
				<use xlink:href="#SVGID_3_"  overflow="visible"/>
			</clipPath>
			<g clip-path="url(#SVGID_4_)">
				<defs>
					<rect id="SVGID_5_" x="0" y="0" width="89" height="24"/>
				</defs>
				<clipPath id="SVGID_6_">
					<use xlink:href="#SVGID_5_"  overflow="visible"/>
				</clipPath>
				<path clip-path="url(#SVGID_6_)" fill="#404258" d="M20.448,7.656h-6.012c0-0.986-0.114-1.646-0.344-1.983
					c-0.36-0.5-1.345-0.748-2.961-0.748c-1.57,0-2.609,0.143-3.117,0.432c-0.506,0.289-0.76,0.914-0.76,1.878
					c0,0.875,0.224,1.449,0.676,1.726c0.321,0.195,0.75,0.313,1.281,0.348l1.213,0.086c2.596,0.172,4.219,0.293,4.866,0.359
					c2.054,0.209,3.542,0.754,4.467,1.643c0.726,0.688,1.16,1.591,1.299,2.707c0.081,0.666,0.121,1.42,0.121,2.258
					c0,1.936-0.184,3.35-0.554,4.246c-0.668,1.645-2.171,2.684-4.511,3.117C15.133,23.91,13.633,24,11.618,24
					c-3.367,0-5.711-0.199-7.035-0.604c-1.624-0.492-2.696-1.492-3.214-2.998c-0.29-0.836-0.434-2.23-0.434-4.184h6.011
					c0,0.219,0.001,0.383,0.001,0.496c0,1.043,0.298,1.713,0.896,2.014c0.416,0.205,0.917,0.311,1.504,0.326h2.208
					c1.126,0,1.848-0.061,2.157-0.176c0.552-0.219,0.915-0.564,1.088-1.053c0.092-0.299,0.137-0.682,0.137-1.15
					c0-1.061-0.385-1.699-1.155-1.932c-0.287-0.094-1.628-0.221-4.021-0.383c-1.92-0.135-3.254-0.268-4-0.395
					c-1.968-0.367-3.28-1.125-3.933-2.272c-0.575-0.979-0.864-2.454-0.864-4.43c0-1.506,0.157-2.713,0.467-3.619
					C1.742,2.74,2.243,2.049,2.935,1.576c1.013-0.723,2.31-1.147,3.887-1.272c1.312-0.114,2.771-0.175,4.369-0.175
					c2.525,0,4.321,0.146,5.393,0.436c2.615,0.702,3.922,2.669,3.922,5.902C20.505,6.728,20.486,7.126,20.448,7.656 M46.871,23.998
					V0h9.412h1.479h1.145c1.65,0,2.91,0.137,3.773,0.404c1.979,0.618,3.309,1.891,3.986,3.811c0.35,1.008,0.527,2.522,0.527,4.549
					c0,2.433-0.195,4.185-0.58,5.248c-0.77,2.104-2.361,3.32-4.762,3.635c-0.279,0.045-1.48,0.086-3.6,0.121l-1.072,0.037h-3.852
					v6.193H46.871z M53.328,12.236h4.023c1.279-0.045,2.057-0.144,2.334-0.297c0.383-0.209,0.641-0.632,0.768-1.263
					c0.082-0.421,0.125-1.043,0.125-1.868c0-1.02-0.082-1.771-0.244-2.261c-0.234-0.688-0.789-1.108-1.672-1.263
					c-0.172-0.021-0.59-0.034-1.25-0.034H53.33L53.328,12.236z M80.98,19.854h-8.639l-1.16,4.145h-6.68L71.711,0h9.744l7.297,23.999
					h-6.541L80.98,19.854z M79.699,15.178L76.672,4.773l-2.938,10.405H79.699z M37.955,3.377c2.666,0,5.043,1.229,6.604,3.149
					l1.395-2.985c-2.178-2.06-5.143-3.326-8.411-3.326c-5.088,0-9.442,3.074-11.229,7.426h-2.715l-1.604,3.437h3.493
					c-0.025,0.317-0.042,0.639-0.042,0.963c0,0.396,0.02,0.783,0.06,1.168h-1.755l-1.605,3.438h4.25
					c1.84,4.242,6.138,7.219,11.146,7.219c2.524,0,4.867-0.758,6.809-2.049v-4.213c-1.563,1.777-3.848,2.902-6.395,2.902
					c-2.98,0-5.595-1.533-7.121-3.859h8.899l1.604-3.438H29.528c-0.062-0.413-0.095-0.836-0.095-1.267
					c0-0.293,0.016-0.582,0.044-0.864h12.855l1.601-3.437H30.587C32.062,5.092,34.81,3.377,37.955,3.377"/>
			</g>
		</g>
	</g>
</g>
</svg>
