<?xml version="1.0" encoding="utf-8"?>
<!-- Generator: Adobe Illustrator 16.0.0, SVG Export Plug-In . SVG Version: 6.00 Build 0)  -->
<!DOCTYPE svg PUBLIC "-//W3C//DTD SVG 1.1//EN" "http://www.w3.org/Graphics/SVG/1.1/DTD/svg11.dtd">
<svg version="1.1" id="Слой_1" xmlns="http://www.w3.org/2000/svg" xmlns:xlink="http://www.w3.org/1999/xlink" x="0px" y="0px"
	 width="138px" height="25px" viewBox="0 0 138 25" enable-background="new 0 0 138 25" xml:space="preserve">
<g enable-background="new    ">
	<g>
		<defs>
			<rect id="SVGID_1_" x="0" width="138" height="25"/>
		</defs>
		<clipPath id="SVGID_2_">
			<use xlink:href="#SVGID_1_"  overflow="visible"/>
		</clipPath>
		<g clip-path="url(#SVGID_2_)">
			<defs>
				<rect id="SVGID_3_" x="0.315" y="0.163" width="136.869" height="24.675"/>
			</defs>
			<clipPath id="SVGID_4_">
				<use xlink:href="#SVGID_3_"  overflow="visible"/>
			</clipPath>
			<g clip-path="url(#SVGID_4_)">
				<defs>
					<rect id="SVGID_5_" x="0" width="137.5" height="25"/>
				</defs>
				<clipPath id="SVGID_6_">
					<use xlink:href="#SVGID_5_"  overflow="visible"/>
				</clipPath>
				<path clip-path="url(#SVGID_6_)" fill="#414259" d="M113.225,0.163c0.471,0.376,0.871,0.802,1.215,1.302
					c0.865,1.253,1.195,2.755,1,4.468h4.428l-6.68,18.529h6.674l6.674-18.531h8.572l2.076-5.768H113.225z M106.414,7.909
					c-0.711,1.943-1.996,3.145-4.432,3.145h-0.012h-1.258l2.154-5.877h1.229C106.338,5.179,107.178,5.841,106.414,7.909
					 M112.887,2.544c-1.096-1.598-3.328-2.378-6.822-2.382h-8.094l-8.754,24.291h7.439l3.182-8.546
					c0.154,0.345,2.033,8.546,2.033,8.546h7.818c0,0-1.422-6.021-2.467-8.455c-0.271-0.625-0.549-1.323-0.926-1.908
					c2.203-0.831,5.404-2.609,6.734-6.213C113.84,5.648,113.791,3.859,112.887,2.544 M38.152,0.145H24.361
					c-2.173,0-4.28,0-6.179,0.973c-1.891,0.97-3.559,2.909-4.848,6.791c-0.275,0.841-0.429,1.556-0.446,2.181
					c-0.014,0.627,0.089,1.157,0.327,1.618c0.288,0.564,0.755,1.098,1.343,1.545c0.588,0.446,1.291,0.809,2.046,1.047
					c0.031,0.006,0.429,0.121,0.909,0.26c0.484,0.14,1.041,0.308,1.398,0.409c0.209,0.065,0.439,0.149,0.648,0.273
					c0.206,0.125,0.393,0.292,0.509,0.522c0.077,0.154,0.114,0.324,0.12,0.502c0.005,0.185-0.023,0.377-0.093,0.579
					c-0.179,0.53-0.445,0.864-0.957,1.079c-0.507,0.205-1.259,0.274-2.389,0.281H2.557l-2.243,6.229h15.189
					c1.434,0,4.046,0,6.552-1.078c2.511-1.078,4.923-3.236,5.938-7.541c0.384-1.621,0.268-2.939-0.361-3.979
					c-0.628-1.036-1.768-1.792-3.429-2.27c0,0-0.371-0.11-0.811-0.241c-0.431-0.125-0.932-0.268-1.195-0.341
					c-0.419-0.12-0.75-0.373-0.939-0.691c-0.191-0.314-0.254-0.702-0.141-1.087c0.11-0.409,0.389-0.73,0.782-0.954
					c0.406-0.223,0.931-0.345,1.54-0.345h8.829c0.063-0.091,0.112-0.186,0.18-0.277C34.061,3.329,36.014,1.464,38.152,0.145
					 M44.629,12.179c-2.061,5.696-3.557,7.136-5.807,7.136h-0.004c-2.196-0.004-2.962-1.406-0.912-7.077
					c1.532-4.234,3.52-6.943,5.917-6.943h0.002C46.111,5.3,46.634,6.636,44.629,12.179 M51.7,2.423
					c-1.202-1.739-3.259-2.622-6.12-2.625c-1.877,0-3.688,0.436-5.395,1.243c-2.439,1.165-4.646,3.111-6.45,5.693
					c-1.168,1.673-2.171,3.607-2.957,5.779c-1.479,4.099-1.462,7.416,0.048,9.608c0.859,1.236,2.643,2.717,6.27,2.717h0.014
					c6.605,0,11.539-4.373,14.661-12.997C52.6,9.555,53.691,5.296,51.7,2.423 M78.104,0.145H64.046c-3.928,0-6.85,2.009-8.232,5.768
					l-6.677,18.521h7.316l3.429-9.525l6.463,0.01l1.834-5.098l-6.438-0.007l1.036-2.95c0.218-0.53,0.734-0.952,1.491-0.952
					c0.416,0,5.162,0.005,7.619,0.005c0.063-0.093,0.121-0.186,0.188-0.277C73.678,3.329,75.961,1.464,78.104,0.145 M84.492,12.179
					c-2.057,5.696-3.553,7.136-5.803,7.136h-0.01c-2.193-0.004-2.959-1.406-0.91-7.077c1.531-4.234,3.521-6.943,5.918-6.943h0.004
					C85.979,5.3,86.502,6.636,84.492,12.179 M91.566,2.423c-1.207-1.739-3.258-2.622-6.125-2.625c-1.871,0-3.686,0.436-5.387,1.243
					c-2.439,1.165-4.652,3.111-6.453,5.693c-1.168,1.675-2.17,3.609-2.959,5.777c-1.476,4.099-1.458,7.416,0.055,9.608
					c0.857,1.236,2.643,2.715,6.268,2.715h0.016c6.602,0,11.541-4.371,14.658-12.995C92.467,9.555,93.553,5.296,91.566,2.423"/>
			</g>
		</g>
	</g>
</g>
</svg>
