<?xml version="1.0" encoding="utf-8"?>
<!-- Generator: Adobe Illustrator 16.0.0, SVG Export Plug-In . SVG Version: 6.00 Build 0)  -->
<!DOCTYPE svg PUBLIC "-//W3C//DTD SVG 1.1//EN" "http://www.w3.org/Graphics/SVG/1.1/DTD/svg11.dtd">
<svg version="1.1" id="Слой_1" xmlns="http://www.w3.org/2000/svg" xmlns:xlink="http://www.w3.org/1999/xlink" x="0px" y="0px"
	 width="92px" height="24px" viewBox="0 0 92 24" enable-background="new 0 0 92 24" xml:space="preserve">
<g enable-background="new    ">
	<g>
		<defs>
			<rect id="SVGID_1_" x="0" width="92" height="24"/>
		</defs>
		<clipPath id="SVGID_2_">
			<use xlink:href="#SVGID_1_"  overflow="visible"/>
		</clipPath>
		<g clip-path="url(#SVGID_2_)">
			<defs>
				<rect id="SVGID_3_" x="0" y="0.756" width="91.635" height="22.487"/>
			</defs>
			<clipPath id="SVGID_4_">
				<use xlink:href="#SVGID_3_"  overflow="visible"/>
			</clipPath>
			<g clip-path="url(#SVGID_4_)">
				<defs>
					<rect id="SVGID_5_" x="0" width="91.637" height="24"/>
				</defs>
				<clipPath id="SVGID_6_">
					<use xlink:href="#SVGID_5_"  overflow="visible"/>
				</clipPath>
				<path clip-path="url(#SVGID_6_)" fill="#404258" d="M55.49,1.412c-1.068,0.351-1.361,1.68-2.051,3.965L49.627,18.59
					c-0.732,2.634-0.719,3.416-0.289,3.982l0.004,0.26h-6.377l-0.002-0.26c1.002-0.499,1.211-1.209,1.995-3.804l3.808-13.16
					c0.725-2.575,0.902-3.515,0.354-4.192V1.161l6.367-0.004L55.49,1.412z"/>
				<path clip-path="url(#SVGID_6_)" fill="#404258" d="M1.333,17.315c0.388,3.088,2.031,4.624,5.573,4.408
					c2.478-0.146,3.732-1.913,3.741-3.791c0.011-1.55-0.948-2.859-2.691-4.099l-1.033-0.68c-2.164-1.519-4.098-3.127-4.081-5.861
					c0.024-3.887,3.203-6.338,7.441-6.525c1.233-0.057,2.787,0.111,3.98,0.421c0.619,0.161,1.46,0.438,1.802,0.553L15.07,5.537
					l-0.286,0.004c-0.54-2.322-1.54-3.625-4.745-3.366C7.784,2.358,6.716,4.167,6.708,5.716c-0.009,1.614,0.95,2.628,2.77,3.8
					l1.028,0.647c2.371,1.54,4.399,3.17,4.379,6.05c-0.031,4.313-3.408,7.027-8.38,7.031c-2.863,0-5.51-0.963-6.506-1.843
					c0.046-0.397,0.593-2.233,1.063-4.072L1.333,17.315z"/>
				<path clip-path="url(#SVGID_6_)" fill="#404258" d="M74.172,1.16c-0.293,0.858-0.818,2.505-1.236,3.811h-0.258
					c-1.016-2.639-3.463-2.295-5.199-2.295l-0.184-0.004c-1.205,0-1.531,0.276-1.838,1.396l-1.936,7.024h0.648
					c2.951,0,5.002,0.271,5.85-0.878h0.254l-1.127,3.963h-0.252c-0.553-1.763-2.631-1.572-5.219-1.577h-0.613l-1.736,5.98
					c-0.637,2.225-0.854,3.375-0.299,3.968l0.004,0.286l-6.375,0.011V22.58c1.107-0.434,1.334-1.43,2.072-3.929l3.83-13.28
					c0.699-2.411,0.834-3.268,0.297-3.956l-0.008-0.258h13.324V1.16z"/>
				<path clip-path="url(#SVGID_6_)" fill="#404258" d="M91.637,1.164c-0.426,1.23-0.797,2.446-1.264,3.809h-0.26
					c-0.98-2.608-3.619-2.297-4.768-2.297h-0.281l-4.592,15.934c-0.613,2.362-0.863,3.357-0.281,3.952l-0.008,0.272h-6.227
					l-0.004-0.272c1.084-0.505,1.328-1.59,2.035-3.991l4.609-15.898h-0.453c-1.5,0-3.871-0.229-5.611,2.296h-0.289
					c0.391-1.104,0.822-2.448,1.297-3.809L91.637,1.164z"/>
				<path clip-path="url(#SVGID_6_)" fill="#404258" d="M46.054,1.428c-0.924,0.653-1.457,1.741-2.577,3.826
					c-1.885,3.515-8.506,16.626-9.01,17.589H32.08l-1.323-13.66h-0.102l-7.408,13.66h-1.979L19.449,5.394
					c-0.227-2.046-0.342-3.386-1.022-3.985l0.006-0.248H24.6l-0.002,0.248c-0.752,0.806-0.935,1.682-0.761,3.722l1.033,10.38h0.065
					l7.728-14.158h1.741l1.336,14.187h0.089c1.669-3.203,4.033-7.783,5.5-10.675c1.292-2.531,0.786-3.106,0.616-3.434V1.157
					l4.109,0.009V1.428z"/>
			</g>
		</g>
	</g>
</g>
</svg>
