<?xml version="1.0" encoding="utf-8"?>
<!-- Generator: Adobe Illustrator 16.0.0, SVG Export Plug-In . SVG Version: 6.00 Build 0)  -->
<!DOCTYPE svg PUBLIC "-//W3C//DTD SVG 1.1//EN" "http://www.w3.org/Graphics/SVG/1.1/DTD/svg11.dtd">
<svg version="1.1" id="Слой_1" xmlns="http://www.w3.org/2000/svg" xmlns:xlink="http://www.w3.org/1999/xlink" x="0px" y="0px"
	 width="166px" height="149px" viewBox="0 0 166 149" enable-background="new 0 0 166 149" xml:space="preserve">
<g enable-background="new    ">
	<g>
		<defs>
			<rect id="SVGID_1_" y="0" width="166" height="149"/>
		</defs>
		<clipPath id="SVGID_2_">
			<use xlink:href="#SVGID_1_"  overflow="visible"/>
		</clipPath>
		<g clip-path="url(#SVGID_2_)">
			<defs>
				<rect id="SVGID_3_" y="-5" width="166" height="159.616"/>
			</defs>
			<clipPath id="SVGID_4_">
				<use xlink:href="#SVGID_3_"  overflow="visible"/>
			</clipPath>
			<polyline clip-path="url(#SVGID_4_)" fill="#F7CE5E" points="6.584,74.807 44.793,140.984 121.207,140.984 92.555,91.352 
				73.449,91.352 63.896,74.807 			"/>
			
				<polyline clip-path="url(#SVGID_4_)" fill="none" stroke="#FFFFFF" stroke-width="3.9904" stroke-linecap="round" stroke-linejoin="round" points="
				121.207,140.984 92.555,91.352 73.449,91.352 63.896,74.807 			"/>
			<polygon clip-path="url(#SVGID_4_)" fill="#F7CE5E" points="63.896,74.807 6.584,74.807 44.793,8.629 121.208,8.629 
				92.555,58.263 73.449,58.263 			"/>
			
				<polyline clip-path="url(#SVGID_4_)" fill="none" stroke="#FFFFFF" stroke-width="3.9904" stroke-linecap="round" stroke-linejoin="round" points="
				121.207,8.629 92.555,58.263 73.449,58.263 63.896,74.807 			"/>
		</g>
		<g clip-path="url(#SVGID_2_)">
			<defs>
				<rect id="SVGID_5_" x="0.532" y="-5" width="164.936" height="159.616"/>
			</defs>
			<clipPath id="SVGID_6_">
				<use xlink:href="#SVGID_5_"  overflow="visible"/>
			</clipPath>
			<g clip-path="url(#SVGID_6_)">
				<defs>
					<rect id="SVGID_7_" y="-5" width="166" height="159.616"/>
				</defs>
				<clipPath id="SVGID_8_">
					<use xlink:href="#SVGID_7_"  overflow="visible"/>
				</clipPath>
				
					<line clip-path="url(#SVGID_8_)" fill="none" stroke="#FFFFFF" stroke-width="3.9904" stroke-linecap="round" stroke-linejoin="round" x1="63.896" y1="74.807" x2="6.584" y2="74.807"/>
			</g>
		</g>
		<g clip-path="url(#SVGID_2_)">
			<defs>
				<rect id="SVGID_9_" y="-5" width="166" height="159.616"/>
			</defs>
			<clipPath id="SVGID_10_">
				<use xlink:href="#SVGID_9_"  overflow="visible"/>
			</clipPath>
			
				<line clip-path="url(#SVGID_10_)" fill="none" stroke="#FFFFFF" stroke-width="5.5865" stroke-linejoin="round" x1="73.446" y1="58.256" x2="44.793" y2="8.629"/>
			<polyline clip-path="url(#SVGID_10_)" fill="none" stroke="#FFFFFF" stroke-width="5.5865" stroke-linejoin="round" points="
				82.999,74.807 44.792,140.986 82.999,74.807 			"/>
			
				<line clip-path="url(#SVGID_10_)" fill="none" stroke="#FFFFFF" stroke-width="3.1923" stroke-linejoin="round" x1="73.449" y1="58.263" x2="82.998" y2="74.807"/>
		</g>
		<g clip-path="url(#SVGID_2_)">
			<defs>
				<rect id="SVGID_11_" x="0.532" y="-5" width="164.936" height="159.616"/>
			</defs>
			<clipPath id="SVGID_12_">
				<use xlink:href="#SVGID_11_"  overflow="visible"/>
			</clipPath>
			<g clip-path="url(#SVGID_12_)">
				<defs>
					<rect id="SVGID_13_" y="-5" width="166" height="159.616"/>
				</defs>
				<clipPath id="SVGID_14_">
					<use xlink:href="#SVGID_13_"  overflow="visible"/>
				</clipPath>
				
					<line clip-path="url(#SVGID_14_)" fill="none" stroke="#FFFFFF" stroke-width="5.5865" stroke-linejoin="round" x1="82.999" y1="74.807" x2="159.415" y2="74.807"/>
				<polyline clip-path="url(#SVGID_14_)" fill="none" stroke="#FFFFFF" stroke-width="7.9808" stroke-linejoin="round" points="
					121.207,8.629 44.793,8.629 6.584,74.807 44.793,140.986 121.207,140.986 159.414,74.807 121.207,8.629 159.414,74.807 				"/>
			</g>
		</g>
	</g>
</g>
</svg>
